<svg width="280" height="335" viewBox="0 0 280 335" fill="none" xmlns="http://www.w3.org/2000/svg">
<g clip-path="url(#clip0_556_8227)">
<path d="M128.493 29.5121V0" stroke="#B7B7B7" stroke-miterlimit="10"/>
<path d="M129.744 29.5121V0" stroke="#B7B7B7" stroke-miterlimit="10"/>
<path d="M141.334 29.5121V0" stroke="#B7B7B7" stroke-miterlimit="10"/>
<path d="M142.585 29.5121V0" stroke="#B7B7B7" stroke-miterlimit="10"/>
<path d="M3.66882 132.428L136.581 67.2173L264.658 119.888" stroke="#9F9F9F" stroke-width="3" stroke-miterlimit="10" stroke-linecap="round"/>
<path opacity="0.2" d="M272.245 301.809H9.6724C7.92136 301.809 6.50385 300.388 6.50385 298.633C6.50385 296.877 7.92136 295.456 9.6724 295.456H272.245C273.996 295.456 275.414 296.877 275.414 298.633C275.331 300.388 273.913 301.809 272.245 301.809Z" fill="black"/>
<path d="M271.828 278.568L11.4235 290.272C9.75581 290.356 8.3383 289.018 8.25492 287.346L1.66766 139.535L268.16 127.58L274.747 275.475C274.83 277.147 273.496 278.568 271.828 278.568Z" fill="white"/>
<path d="M264.658 118.049L4.25255 129.753C2.5849 129.837 1.25077 131.258 1.33415 132.93L1.66768 139.535L268.16 127.579L267.826 120.975C267.743 119.303 266.325 117.965 264.658 118.049Z" fill="#EAEAEA"/>
<path d="M268.144 127.523L1.66864 139.518L2.09871 149.123L268.574 137.128L268.144 127.523Z" fill="#F4F4F4"/>
<path d="M8.75523 134.435C8.83861 135.438 8.00478 136.274 7.08757 136.274C6.08697 136.358 5.25314 135.522 5.25314 134.602C5.16976 133.599 6.00359 132.763 6.9208 132.763C7.83801 132.679 8.67184 133.432 8.75523 134.435Z" fill="#D63A3A"/>
<path d="M14.3419 134.184C14.4253 135.188 13.5914 136.024 12.6742 136.024C11.6736 136.107 10.8398 135.271 10.8398 134.351C10.7564 133.348 11.5903 132.512 12.5075 132.512C13.4247 132.429 14.2585 133.181 14.3419 134.184Z" fill="#FFB600"/>
<path d="M19.9286 133.933C20.0119 134.937 19.1781 135.773 18.2609 135.773C17.3437 135.773 16.4265 135.02 16.4265 134.101C16.3431 133.097 17.1769 132.261 18.0941 132.261C19.0947 132.178 19.8452 132.93 19.9286 133.933Z" fill="#6CCE20"/>
<path d="M9.67244 144.551L6.08698 144.718" stroke="#7F7F7F" stroke-width="0.5" stroke-miterlimit="10"/>
<path d="M7.42109 142.962L7.67124 143.213L6.25372 144.718L7.838 146.056L7.58785 146.39L5.67004 144.718L7.42109 142.962Z" fill="#7F7F7F"/>
<path d="M11.3401 144.467L14.9256 144.3" stroke="#7F7F7F" stroke-width="0.5" stroke-miterlimit="10"/>
<path d="M13.5914 146.056L13.2579 145.805L14.7588 144.3L13.1745 142.963L13.4246 142.712L15.3425 144.3L13.5914 146.056Z" fill="#7F7F7F"/>
<path d="M21.6796 144.049C21.763 145.053 20.9292 145.972 19.8452 146.056C18.8446 146.139 17.9274 145.303 17.844 144.216C17.7606 143.213 18.5945 142.294 19.6784 142.21C19.6784 142.21 20.3455 141.959 21.2627 142.962" stroke="#7F7F7F" stroke-width="0.5" stroke-miterlimit="10"/>
<path d="M20.2621 142.879H21.2627L21.3461 141.875L21.763 142.377L21.6796 143.38L20.679 143.297L20.2621 142.879Z" fill="#7F7F7F"/>
<path d="M257.161 130.011L27.0046 140.372L27.2589 146.051L257.416 135.691L257.161 130.011Z" fill="white"/>
<path d="M278.725 235.542L0.7547 248.054L2.02248 276.368L279.993 263.855L278.725 235.542Z" fill="#D7F719"/>
<path d="M6.50385 247.801L6.33709 244.207L0.750427 248.052L6.50385 247.801Z" fill="#D7F719"/>
<path d="M278.666 235.595L272.996 235.846L272.829 232.167L278.666 235.595Z" fill="#D7F719"/>
<path d="M17.3436 275.725L4.91956 276.31L13.9249 247.467L26.349 246.965L17.3436 275.725Z" fill="#262626"/>
<path d="M42.2751 274.638L29.8511 275.14L38.8564 246.38L51.2805 245.795L42.2751 274.638Z" fill="#262626"/>
<path d="M67.1233 273.468L54.6992 274.053L63.7046 245.21L76.212 244.708L67.1233 273.468Z" fill="#262626"/>
<path d="M92.0548 272.381L79.6307 272.966L88.6361 244.123L101.06 243.538L92.0548 272.381Z" fill="#262626"/>
<path d="M116.986 271.294L104.479 271.796L113.568 243.036L125.992 242.451L116.986 271.294Z" fill="#262626"/>
<path d="M141.834 270.123L129.41 270.709L138.416 241.865L150.84 241.364L141.834 270.123Z" fill="#262626"/>
<path d="M166.766 269.037L154.342 269.538L163.347 240.779L175.771 240.193L166.766 269.037Z" fill="#262626"/>
<path d="M191.614 267.866L179.19 268.451L188.195 239.608L200.703 239.106L191.614 267.866Z" fill="#262626"/>
<path d="M216.546 266.779L204.121 267.365L213.127 238.521L225.551 237.936L216.546 266.779Z" fill="#262626"/>
<path d="M241.477 265.692L228.97 266.194L238.058 237.434L250.482 236.849L241.477 265.692Z" fill="#262626"/>
<path d="M266.325 264.522L253.901 265.107L262.906 236.264L275.331 235.762L266.325 264.522Z" fill="#262626"/>
<path opacity="0.2" d="M70.2085 331.488C70.2085 333.411 54.5325 335 35.1042 335C15.676 335 0 333.411 0 331.488C0 329.566 15.676 327.977 35.1042 327.977C54.4491 327.977 70.2085 329.566 70.2085 331.488Z" fill="black"/>
<path d="M11.1733 327.977H59.0352L38.3562 276.31H31.8523L11.1733 327.977Z" fill="#FF6700"/>
<path d="M61.62 327.977H8.50507V331.405H61.62V327.977Z" fill="#DB5800"/>
<path d="M59.0352 327.977H11.1733L15.676 316.774H54.5325L59.0352 327.977Z" fill="#F2F2F2"/>
<path opacity="0.2" d="M241.394 334.833C260.781 334.833 276.498 333.261 276.498 331.321C276.498 329.382 260.781 327.81 241.394 327.81C222.006 327.81 206.289 329.382 206.289 331.321C206.289 333.261 222.006 334.833 241.394 334.833Z" fill="black"/>
<path d="M217.463 327.977H265.241L244.646 276.31H238.142L217.463 327.977Z" fill="#FF6700"/>
<path d="M267.909 327.977H214.795V331.405H267.909V327.977Z" fill="#DB5800"/>
<path d="M265.241 327.977H217.463L221.965 316.774H260.822L265.241 327.977Z" fill="#F2F2F2"/>
<path d="M133.163 67.468C132.746 66.7992 132.496 65.8795 132.496 64.6255C132.496 60.7797 135.581 60.1945 135.998 60.1109L137.082 59.9437V54.5094C137.082 53.8406 136.498 53.2554 135.831 53.2554C135.164 53.2554 134.58 53.8406 134.58 54.5094V57.9372C132.579 58.606 130.077 60.6125 130.077 64.6255C130.077 66.3812 130.494 67.6352 130.995 68.5548L133.163 67.468Z" fill="#B7B7B7"/>
<path d="M138.249 68.8056C138.249 68.5548 138.166 68.304 137.999 68.1368C137.749 67.5516 137.332 67.05 136.832 66.5483C136.748 67.1336 136.581 67.7188 136.248 68.2204C136.081 68.4712 135.914 68.8056 135.581 69.0565C135.414 69.1401 133.496 70.0597 132.746 70.4777C133.413 70.8121 134.163 70.9793 134.914 70.9793C135.748 70.9793 136.665 70.8121 137.499 70.3941C137.915 70.1433 138.166 69.7253 138.166 69.2237C138.249 69.2237 138.249 68.9729 138.249 68.8056Z" fill="#B7B7B7"/>
<path d="M138.166 54.5094H132.829L128.66 40.3804H142.335L138.166 54.5094Z" fill="#D7F719"/>
<path d="M142.895 31.3114C143.862 27.2231 141.34 23.1231 137.263 22.1537C133.185 21.1844 129.096 23.7128 128.129 27.8011C127.162 31.8894 129.684 35.9894 133.762 36.9588C137.839 37.9281 141.928 35.3997 142.895 31.3114Z" fill="#444444"/>
<path d="M140.917 29.5123C140.917 32.522 138.499 34.8629 135.581 34.8629C132.579 34.8629 130.244 32.4384 130.244 29.5123C130.244 26.5025 132.662 24.1616 135.581 24.1616C138.499 24.1616 140.917 26.5861 140.917 29.5123Z" fill="#B7B7B7"/>
<path d="M142.335 33.8594H128.66V40.3805H142.335V33.8594Z" fill="#262626"/>
<path d="M28.6373 208.531C27.5033 208.599 26.5125 208.514 25.6649 208.276C24.8322 208.022 24.1728 207.581 23.6865 206.952C23.1993 206.308 22.8904 205.429 22.7598 204.315L21.7526 194.686L25.1306 194.484L26.0438 202.94C26.1148 203.593 26.2486 204.09 26.4453 204.431C26.6569 204.755 26.9422 204.97 27.3012 205.077C27.6593 205.167 28.1178 205.196 28.6768 205.163C29.2837 205.126 29.7245 205.26 29.999 205.564C30.2727 205.852 30.4233 206.228 30.451 206.691C30.4805 207.186 30.3376 207.612 30.0222 207.967C29.7218 208.306 29.2602 208.494 28.6373 208.531ZM24.1203 206.566C23.0645 206.87 22.041 207.043 21.0498 207.087C20.0577 207.114 19.1608 206.991 18.3592 206.719C17.5566 206.431 16.9051 205.989 16.4048 205.394C15.9204 204.798 15.6497 204.02 15.5925 203.062C15.542 202.216 15.6799 201.438 16.0063 200.729C16.3477 200.003 16.8381 199.357 17.4774 198.79C18.1327 198.221 18.9046 197.726 19.7931 197.304C20.6815 196.882 21.6551 196.543 22.7137 196.288L23.252 199.669C22.5672 199.743 21.95 199.876 21.4006 200.069C20.8661 200.245 20.4064 200.465 20.0214 200.729C19.6524 200.991 19.3731 201.281 19.1836 201.596C18.9931 201.896 18.9079 202.214 18.9279 202.549C18.9441 202.821 19.0532 203.039 19.2554 203.203C19.4575 203.367 19.7216 203.496 20.0477 203.588C20.3729 203.665 20.7435 203.699 21.1598 203.69C21.576 203.681 21.9978 203.632 22.4252 203.542C22.8686 203.451 23.3016 203.321 23.7242 203.151L24.1203 206.566ZM23.3303 192.115C22.8672 192.143 22.4584 192.007 22.1039 191.708C21.7645 191.392 21.5814 191.01 21.5547 190.563C21.5271 190.1 21.663 189.691 21.9624 189.336C22.2778 188.981 22.6671 188.789 23.1303 188.761C23.5774 188.734 23.9708 188.879 24.3102 189.195C24.6496 189.512 24.8332 189.901 24.8608 190.364C24.8875 190.812 24.7511 191.213 24.4517 191.567C24.1513 191.906 23.7775 192.088 23.3303 192.115ZM19.1844 192.34C18.7212 192.368 18.3124 192.232 17.9579 191.932C17.6185 191.616 17.4354 191.235 17.4088 190.787C17.3811 190.324 17.517 189.915 17.8164 189.561C18.1318 189.205 18.5211 189.014 18.9843 188.986C19.4315 188.959 19.8248 189.104 20.1642 189.42C20.5036 189.736 20.6872 190.126 20.7148 190.589C20.7415 191.036 20.6051 191.437 20.3057 191.792C20.0053 192.13 19.6316 192.313 19.1844 192.34ZM28.6293 208.531L28.6687 205.163C29.0361 205.141 29.3423 205.034 29.5873 204.843C29.8474 204.636 30.1083 204.307 30.3701 203.859C30.6309 203.394 30.9306 202.775 31.2691 202.002C31.6911 201.015 32.1414 200.234 32.6201 199.661C33.1147 199.086 33.6269 198.671 34.1566 198.414C34.7013 198.141 35.2532 197.988 35.8121 197.954C36.5149 197.912 37.1788 198.025 37.8038 198.292C38.4288 198.559 38.9806 198.943 39.4593 199.443C39.9369 199.927 40.3156 200.497 40.5952 201.154C40.8898 201.793 41.058 202.465 41.1 203.167C41.1505 204.014 41.0125 204.791 40.6861 205.5C40.3748 206.192 39.9116 206.757 39.2966 207.194C38.6966 207.615 37.9893 207.85 37.1747 207.899C36.488 207.94 35.6823 207.868 34.7576 207.683C33.833 207.498 32.8447 207.052 31.7927 206.346L32.8416 203.374C33.5899 203.826 34.2821 204.145 34.9183 204.331C35.5705 204.517 36.1042 204.597 36.5195 204.572C36.8389 204.553 37.1005 204.505 37.3043 204.429C37.5082 204.352 37.6537 204.239 37.7409 204.09C37.8282 203.941 37.8647 203.746 37.8504 203.506C37.8304 203.171 37.73 202.832 37.5494 202.491C37.3687 202.149 37.1354 201.866 36.8496 201.643C36.5789 201.403 36.2678 201.293 35.9164 201.314C35.581 201.334 35.3011 201.479 35.0768 201.749C34.8675 202.002 34.6649 202.367 34.4689 202.844C34.288 203.303 34.0639 203.846 33.7966 204.471C33.4731 205.228 33.1504 205.864 32.8286 206.38C32.5058 206.88 32.1534 207.286 31.7712 207.598C31.4041 207.892 30.9604 208.111 30.44 208.255C29.9356 208.397 29.332 208.489 28.6293 208.531ZM47.5955 204.028C48.3142 203.985 48.8614 203.888 49.2371 203.737C49.6128 203.586 49.8663 203.403 49.9976 203.187C50.129 202.97 50.1875 202.742 50.1732 202.503C50.1504 202.12 50.0119 201.679 49.7578 201.181C49.5197 200.683 49.2242 200.164 48.8715 199.624C48.5187 199.084 48.1514 198.569 47.7695 198.079C47.4036 197.588 47.0735 197.159 46.7791 196.792L49.5171 194.728C50.2591 195.613 50.9049 196.496 51.4543 197.377C52.0027 198.242 52.4516 199.048 52.8008 199.797C53.1659 200.544 53.4286 201.186 53.5887 201.721C53.747 202.224 53.9625 202.612 54.2352 202.884C54.5229 203.14 54.8458 203.313 55.2038 203.403C55.5618 203.494 55.9165 203.529 56.2679 203.508C56.8748 203.471 57.3156 203.605 57.5902 203.909C57.8798 204.197 58.0384 204.572 58.066 205.035C58.0956 205.53 57.9526 205.955 57.6373 206.311C57.3369 206.649 56.8673 206.838 56.2284 206.876C55.5257 206.918 54.9051 206.859 54.3666 206.699C53.8281 206.539 53.3628 206.263 52.9707 205.869C52.5786 205.476 52.2357 204.968 51.942 204.344L53.422 204.568C53.3209 205.023 53.0502 205.456 52.6099 205.867C52.1846 206.261 51.6038 206.601 50.8674 206.885C50.1461 207.153 49.2823 207.317 48.2761 207.377C47.797 207.406 47.2596 207.398 46.6639 207.354C46.0841 207.308 45.502 207.223 44.9175 207.098C44.349 206.972 43.8255 206.795 43.3471 206.567L44.3395 203.454C44.9457 203.674 45.5241 203.832 46.0748 203.927C46.6414 204.021 47.1483 204.055 47.5955 204.028ZM71.9272 205.935C71.1925 205.979 70.5024 205.964 69.8568 205.891C69.2273 205.816 68.6409 205.659 68.0976 205.419C67.5534 205.163 67.0589 204.8 66.6142 204.33C66.1853 203.859 65.8128 203.256 65.4965 202.522L67.299 200.899C67.617 201.393 67.9922 201.771 68.4246 202.033C68.8561 202.28 69.3626 202.442 69.9442 202.519C70.5259 202.597 71.2 202.612 71.9666 202.566C72.5735 202.53 73.0143 202.664 73.2889 202.968C73.5625 203.256 73.7132 203.632 73.7408 204.095C73.7703 204.59 73.6274 205.015 73.312 205.371C73.0117 205.709 72.55 205.897 71.9272 205.935ZM56.2593 206.874L56.2988 203.506C57.1612 203.454 58.0128 203.355 58.8536 203.209C59.6944 203.062 60.5083 202.869 61.2954 202.629C62.0826 202.39 62.8264 202.097 63.5271 201.75C64.2436 201.403 64.9085 200.994 65.5216 200.525C65.0253 200.266 64.4915 200.049 63.9201 199.875C63.3487 199.701 62.7407 199.585 62.0962 199.528C61.4666 199.453 60.8005 199.437 60.0977 199.479C59.8422 199.495 59.5712 199.519 59.2846 199.552C59.0141 199.584 58.7365 199.633 58.4519 199.698C58.1663 199.747 57.8817 199.813 57.598 199.894L56.923 196.64C57.3786 196.485 57.8605 196.368 58.3687 196.289C58.8919 196.194 59.3532 196.134 59.7525 196.11C60.6149 196.058 61.4112 196.107 62.1414 196.255C62.8875 196.403 63.5726 196.602 64.1966 196.853C64.8367 197.103 65.4288 197.356 65.973 197.612C66.5332 197.867 67.0585 198.076 67.5491 198.239C68.0557 198.401 68.5405 198.468 69.0037 198.44L69.8901 198.387L70.4635 201.551C69.7786 201.624 69.1399 201.798 68.5473 202.074C67.9697 202.333 67.3959 202.656 66.8259 203.043C66.2709 203.413 65.669 203.802 65.0201 204.209C64.3872 204.616 63.665 205.004 62.8536 205.373C62.0421 205.742 61.0996 206.063 60.0259 206.336C58.9523 206.609 57.6967 206.788 56.2593 206.874ZM59.6053 193.642C59.1102 193.672 58.6769 193.53 58.3055 193.215C57.9501 192.9 57.7577 192.495 57.7281 192C57.6986 191.505 57.841 191.071 58.1555 190.7C58.4859 190.327 58.8986 190.126 59.3938 190.097C59.8729 190.068 60.2906 190.219 60.647 190.55C61.0193 190.881 61.2203 191.293 61.2498 191.789C61.2793 192.284 61.1284 192.71 60.7971 193.066C60.4817 193.422 60.0844 193.614 59.6053 193.642ZM71.9343 205.934L71.9737 202.566C72.7084 202.522 73.2312 202.418 73.542 202.256C73.8519 202.077 74.0264 201.778 74.0656 201.359C74.1037 200.923 74.0825 200.3 74.002 199.487L72.8933 188.157L76.2713 187.954L77.4421 199.521C77.5293 200.446 77.5394 201.286 77.4724 202.044C77.4204 202.784 77.2105 203.43 76.8427 203.981C76.4908 204.531 75.9162 204.974 75.1188 205.311C74.3374 205.646 73.2759 205.854 71.9343 205.934ZM80.9559 205.273L79.4066 187.766L82.7606 187.565L84.3099 205.072L80.9559 205.273ZM92.1388 203.929C92.1169 203.562 92.1231 203.129 92.1574 202.63C92.1918 202.131 92.2782 201.565 92.4167 200.931C92.5543 200.282 92.7754 199.555 93.0801 198.752L96.0883 199.605C95.9421 200.111 95.8176 200.575 95.7146 200.998C95.6106 201.405 95.5372 201.786 95.4943 202.141C95.4504 202.48 95.4384 202.818 95.4585 203.153C95.4899 203.68 95.6298 204.145 95.8782 204.546C96.1435 204.963 96.5083 205.302 96.9726 205.563C97.4379 205.839 97.9948 206.038 98.6432 206.16C99.3075 206.28 100.063 206.315 100.909 206.264C101.788 206.212 102.568 206.125 103.25 206.004C103.948 205.882 104.532 205.727 105.001 205.538C105.487 205.349 105.85 205.119 106.09 204.848C106.331 204.593 106.443 204.306 106.424 203.986C106.415 203.842 106.351 203.71 106.232 203.589C106.128 203.467 105.952 203.341 105.704 203.212C105.472 203.082 105.159 202.948 104.767 202.811C104.39 202.674 103.932 202.525 103.394 202.365L103.983 198.939C104.687 199.186 105.349 199.402 105.969 199.59C106.604 199.76 107.206 199.9 107.773 200.01C108.34 200.105 108.873 200.177 109.373 200.227C109.872 200.261 110.337 200.265 110.768 200.239C111.375 200.203 111.816 200.337 112.09 200.641C112.364 200.929 112.515 201.305 112.542 201.768C112.572 202.263 112.429 202.688 112.114 203.044C111.797 203.383 111.336 203.571 110.729 203.608C110.601 203.615 110.473 203.623 110.345 203.631C110.234 203.637 110.114 203.645 109.986 203.652C109.874 203.659 109.754 203.666 109.627 203.674C109.668 203.832 109.692 203.966 109.699 204.078C109.706 204.206 109.714 204.326 109.72 204.438C109.752 204.965 109.6 205.511 109.265 206.076C108.946 206.64 108.425 207.176 107.702 207.684C106.979 208.192 106.043 208.617 104.893 208.959C103.76 209.315 102.395 209.541 100.798 209.637C99.0731 209.741 97.5745 209.606 96.302 209.234C95.0465 208.876 94.0557 208.254 93.3297 207.368C92.6205 206.497 92.2236 205.351 92.1388 203.929ZM103.477 215.054C103.014 215.082 102.605 214.938 102.25 214.623C101.911 214.323 101.728 213.949 101.702 213.502C101.674 213.039 101.81 212.63 102.109 212.275C102.425 211.92 102.814 211.728 103.277 211.7C103.725 211.674 104.118 211.818 104.457 212.135C104.797 212.451 104.98 212.84 105.008 213.304C105.035 213.751 104.898 214.144 104.597 214.482C104.298 214.837 103.925 215.028 103.477 215.054ZM99.3328 215.303C98.8697 215.331 98.4604 215.187 98.105 214.872C97.7665 214.571 97.5839 214.198 97.5572 213.75C97.5296 213.287 97.6655 212.878 97.9649 212.524C98.2803 212.168 98.6696 211.977 99.1328 211.949C99.58 211.922 99.9733 212.067 100.313 212.383C100.652 212.699 100.836 213.089 100.863 213.552C100.89 213.999 100.753 214.392 100.453 214.731C100.153 215.085 99.78 215.276 99.3328 215.303ZM110.724 203.608L110.763 200.24C111.514 200.195 112.037 200.091 112.332 199.929C112.642 199.75 112.816 199.451 112.855 199.032C112.893 198.597 112.872 197.973 112.792 197.161L111.731 185.828L115.133 185.624L116.216 196.931C116.296 197.728 116.428 198.337 116.614 198.759C116.799 199.18 117.08 199.46 117.457 199.598C117.85 199.735 118.366 199.784 119.005 199.745C119.612 199.709 120.052 199.843 120.327 200.147C120.601 200.435 120.751 200.811 120.779 201.274C120.808 201.769 120.665 202.194 120.35 202.55C120.034 202.889 119.572 203.077 118.965 203.114C118.262 203.156 117.603 203.115 116.986 202.992C116.37 202.869 115.849 202.595 115.423 202.172C114.997 201.749 114.695 201.118 114.516 200.279L115.572 200.24C115.35 201.087 115.037 201.747 114.632 202.22C114.227 202.677 113.702 203.013 113.057 203.228C112.428 203.426 111.65 203.553 110.724 203.608ZM118.959 203.114L118.999 199.746C119.749 199.701 120.324 199.658 120.722 199.618C121.136 199.578 121.447 199.543 121.654 199.514C121.859 199.47 122.034 199.436 122.176 199.411C122.007 199.261 121.786 199.042 121.512 198.754C121.238 198.465 120.983 198.088 120.747 197.621C120.527 197.154 120.397 196.584 120.357 195.914C120.299 194.939 120.495 194.07 120.947 193.306C121.414 192.54 122.066 191.924 122.904 191.457C123.742 190.99 124.696 190.725 125.766 190.66C126.277 190.63 126.75 190.633 127.185 190.671C127.636 190.709 128.089 190.778 128.544 190.878L128.207 194.096C127.882 194.036 127.543 193.992 127.189 193.965C126.835 193.938 126.522 193.933 126.25 193.949C125.723 193.981 125.265 194.097 124.877 194.296C124.503 194.479 124.213 194.729 124.008 195.045C123.817 195.345 123.734 195.703 123.759 196.118C123.775 196.39 123.838 196.642 123.949 196.876C124.075 197.109 124.223 197.317 124.394 197.499C124.566 197.681 124.751 197.838 124.951 197.97C125.152 198.102 125.343 198.211 125.524 198.297C125.72 198.365 125.883 198.411 126.013 198.436C126.406 198.3 126.743 198.183 127.026 198.086C127.324 197.972 127.606 197.867 127.873 197.771C128.155 197.658 128.459 197.519 128.786 197.356C129.112 197.192 129.517 196.991 130 196.754L131.267 199.852C129.964 200.587 128.685 201.176 127.429 201.62C126.173 202.064 124.863 202.399 123.498 202.626C122.133 202.852 120.62 203.015 118.959 203.114ZM138.836 201.129C138.814 200.761 138.82 200.328 138.855 199.829C138.889 199.33 138.976 198.764 139.114 198.131C139.252 197.481 139.473 196.755 139.777 195.951L142.786 196.805C142.639 197.31 142.515 197.774 142.412 198.197C142.308 198.604 142.235 198.985 142.192 199.341C142.148 199.68 142.136 200.017 142.156 200.353C142.199 201.071 142.412 201.684 142.794 202.19C143.194 202.711 143.714 203.096 144.354 203.346C145.011 203.612 145.755 203.719 146.585 203.669C147.943 203.588 148.968 203.302 149.66 202.812C150.369 202.337 150.823 201.62 151.022 200.662C151.236 199.688 151.266 198.444 151.112 196.93L149.832 183.543L153.21 183.34L154.246 194.651C154.325 195.447 154.474 196.055 154.691 196.475C154.909 196.895 155.222 197.173 155.63 197.308C156.055 197.443 156.595 197.491 157.25 197.452C157.857 197.415 158.298 197.549 158.572 197.853C158.846 198.142 158.996 198.517 159.024 198.98C159.054 199.475 158.911 199.901 158.595 200.256C158.279 200.596 157.817 200.784 157.21 200.82C156.859 200.841 156.481 200.816 156.076 200.744C155.671 200.672 155.278 200.543 154.899 200.358C154.519 200.172 154.183 199.92 153.892 199.601C153.599 199.266 153.39 198.845 153.264 198.34L154.519 197.616C154.615 199.229 154.505 200.606 154.188 201.747C153.888 202.887 153.398 203.822 152.721 204.552C152.059 205.281 151.218 205.828 150.198 206.194C149.195 206.574 148.022 206.805 146.681 206.885C145.659 206.947 144.685 206.877 143.759 206.676C142.85 206.474 142.036 206.138 141.319 205.668C140.602 205.198 140.02 204.584 139.574 203.825C139.145 203.082 138.899 202.183 138.836 201.129ZM157.211 200.82L157.25 197.452C157.65 197.428 157.948 197.33 158.146 197.158C158.344 196.985 158.535 196.693 158.719 196.282C158.903 195.87 159.158 195.31 159.484 194.601C159.838 193.81 160.215 193.147 160.616 192.61C161.016 192.057 161.422 191.616 161.835 191.286C162.263 190.94 162.689 190.69 163.113 190.536C163.551 190.366 163.986 190.268 164.418 190.242C165.009 190.206 165.567 190.301 166.093 190.526C166.635 190.734 167.163 191.127 167.679 191.705C168.193 192.267 168.697 193.055 169.19 194.067C169.536 194.767 169.873 195.3 170.199 195.665C170.525 196.031 170.852 196.275 171.18 196.4C171.524 196.524 171.864 196.575 172.199 196.555C172.806 196.519 173.247 196.653 173.522 196.957C173.795 197.245 173.946 197.621 173.974 198.084C174.003 198.579 173.86 199.004 173.545 199.36C173.228 199.699 172.767 199.887 172.16 199.924C171.377 199.971 170.659 199.885 170.005 199.668C169.351 199.451 168.825 199.098 168.427 198.609L169.09 198.04C168.967 198.384 168.772 198.748 168.506 199.133C168.257 199.517 167.916 199.85 167.484 200.132C167.068 200.413 166.557 200.572 165.95 200.609C165.55 200.633 165.074 200.581 164.522 200.454C163.986 200.342 163.42 200.127 162.825 199.81C162.244 199.476 161.695 199.012 161.179 198.418C160.909 198.996 160.599 199.455 160.251 199.796C159.902 200.122 159.484 200.363 158.996 200.521C158.509 200.678 157.913 200.778 157.211 200.82ZM162.4 195.508C162.574 195.738 162.78 195.966 163.017 196.192C163.255 196.418 163.516 196.619 163.799 196.795C164.081 196.954 164.377 197.08 164.687 197.174C165.013 197.267 165.328 197.304 165.631 197.286C165.951 197.267 166.207 197.131 166.4 196.879C166.593 196.611 166.578 196.235 166.357 195.752C166.265 195.549 166.139 195.324 165.98 195.077C165.836 194.813 165.669 194.567 165.479 194.338C165.305 194.108 165.11 193.919 164.893 193.772C164.691 193.623 164.487 193.556 164.279 193.568C164.072 193.58 163.86 193.657 163.644 193.798C163.428 193.94 163.216 194.153 163.009 194.438C162.801 194.707 162.597 195.063 162.4 195.508ZM172.065 199.929L172.104 196.561C173.222 196.494 174.224 196.362 175.11 196.164C175.995 195.951 176.765 195.696 177.42 195.401C178.092 195.104 178.641 194.774 179.068 194.412C179.512 194.049 179.834 193.677 180.036 193.296C180.252 192.899 180.35 192.516 180.328 192.149C180.316 191.941 180.248 191.753 180.126 191.584C180.019 191.398 179.842 191.256 179.596 191.159C179.349 191.045 179.017 191.001 178.602 191.026C178.394 191.038 178.148 191.077 177.864 191.142C177.579 191.208 177.296 191.297 177.014 191.41C176.731 191.507 176.466 191.635 176.22 191.794C176.57 192.029 176.957 192.335 177.38 192.71C177.802 193.07 178.226 193.453 178.651 193.86C179.075 194.252 179.443 194.638 179.754 195.02C180.098 195.144 180.474 195.266 180.882 195.385C181.305 195.488 181.758 195.573 182.243 195.64C182.728 195.707 183.236 195.757 183.767 195.789C184.297 195.806 184.841 195.797 185.4 195.764C186.007 195.727 186.448 195.861 186.722 196.165C187.012 196.452 187.171 196.827 187.198 197.291C187.228 197.786 187.085 198.211 186.77 198.567C186.453 198.906 185.984 199.095 185.361 199.132C184.083 199.209 182.943 199.181 181.942 199.049C180.939 198.9 180.035 198.658 179.23 198.322C178.439 197.968 177.692 197.532 176.988 197.013C176.776 196.69 176.483 196.346 176.109 195.984C175.75 195.605 175.367 195.243 174.962 194.899C174.573 194.554 174.219 194.27 173.902 194.049C173.818 193.99 173.712 193.828 173.584 193.563C173.471 193.281 173.366 192.991 173.268 192.692C173.169 192.378 173.116 192.157 173.108 192.029C173.086 191.661 173.23 191.26 173.541 190.825C173.868 190.388 174.308 189.977 174.862 189.591C175.431 189.189 176.06 188.854 176.75 188.589C177.454 188.306 178.174 188.143 178.908 188.098C179.898 188.039 180.73 188.141 181.403 188.406C182.091 188.653 182.618 189.03 182.985 189.537C183.351 190.028 183.554 190.617 183.595 191.304C183.641 192.07 183.519 192.847 183.23 193.634C182.939 194.404 182.486 195.145 181.871 195.855C181.273 196.564 180.502 197.211 179.559 197.797C178.631 198.365 177.537 198.84 176.278 199.22C175.034 199.599 173.63 199.836 172.065 199.929ZM185.379 199.131L185.418 195.762C186.153 195.718 186.676 195.615 186.987 195.452C187.297 195.273 187.471 194.974 187.51 194.555C187.548 194.12 187.527 193.496 187.447 192.684L186.338 181.354L189.716 181.151L190.887 192.718C190.974 193.642 190.984 194.483 190.917 195.24C190.865 195.981 190.655 196.627 190.287 197.178C189.935 197.728 189.361 198.171 188.563 198.507C187.782 198.843 186.72 199.05 185.379 199.131ZM194.401 198.47L192.851 180.963L196.205 180.762L197.754 198.268L194.401 198.47ZM205.583 197.126C205.561 196.758 205.568 196.325 205.602 195.826C205.636 195.327 205.723 194.761 205.861 194.128C205.999 193.478 206.22 192.752 206.525 191.948L209.533 192.802C209.387 193.307 209.262 193.772 209.159 194.194C209.055 194.601 208.982 194.982 208.939 195.338C208.895 195.677 208.883 196.014 208.903 196.35C208.932 196.829 209.062 197.27 209.295 197.673C209.527 198.075 209.86 198.416 210.293 198.695C210.727 198.989 211.253 199.206 211.871 199.345C212.504 199.484 213.228 199.528 214.043 199.48C214.969 199.424 215.778 199.287 216.47 199.07C217.18 198.867 217.766 198.615 218.229 198.315C218.709 198.03 219.068 197.736 219.306 197.433C219.544 197.13 219.656 196.859 219.642 196.619C219.631 196.428 219.485 196.268 219.205 196.141C218.941 196.012 218.589 195.889 218.149 195.771C217.724 195.636 217.267 195.487 216.776 195.325C216.301 195.161 215.84 194.948 215.392 194.686C214.959 194.424 214.595 194.093 214.298 193.694C214.018 193.294 213.86 192.799 213.825 192.208C213.789 191.601 213.909 190.928 214.186 190.19C214.461 189.437 214.875 188.714 215.427 188.024C215.978 187.318 216.648 186.733 217.438 186.269C218.243 185.788 219.14 185.517 220.13 185.458C220.833 185.416 221.479 185.489 222.067 185.678C222.671 185.867 223.182 186.092 223.598 186.356L222.519 189.234C222.171 189.03 221.801 188.884 221.411 188.795C221.02 188.691 220.649 188.649 220.298 188.67C219.851 188.697 219.425 188.81 219.02 189.011C218.631 189.21 218.286 189.464 217.983 189.77C217.696 190.06 217.474 190.37 217.318 190.7C217.161 191.03 217.091 191.338 217.108 191.626C217.125 191.913 217.276 192.161 217.561 192.368C217.861 192.559 218.24 192.736 218.699 192.901C219.157 193.05 219.639 193.205 220.145 193.367C220.652 193.529 221.136 193.717 221.597 193.929C222.059 194.142 222.435 194.408 222.727 194.727C223.034 195.045 223.203 195.444 223.231 195.923C223.272 196.61 223.099 197.334 222.711 198.094C222.341 198.87 221.76 199.602 220.967 200.291C220.175 200.979 219.183 201.552 217.992 202.008C216.818 202.479 215.441 202.762 213.859 202.857C212.709 202.926 211.647 202.853 210.673 202.639C209.699 202.441 208.837 202.1 208.087 201.616C207.354 201.147 206.764 200.533 206.318 199.775C205.889 199.031 205.644 198.148 205.583 197.126ZM216.371 208.284C215.908 208.312 215.499 208.168 215.143 207.853C214.805 207.552 214.622 207.179 214.595 206.732C214.568 206.268 214.704 205.859 215.003 205.505C215.318 205.149 215.708 204.958 216.171 204.93C216.618 204.903 217.011 205.048 217.351 205.364C217.69 205.68 217.874 206.07 217.901 206.533C217.928 206.98 217.791 207.373 217.491 207.712C217.192 208.066 216.818 208.257 216.371 208.284ZM212.226 208.533C211.763 208.56 211.354 208.417 210.999 208.101C210.66 207.801 210.478 207.427 210.451 206.98C210.423 206.517 210.559 206.108 210.859 205.753C211.174 205.398 211.563 205.206 212.026 205.179C212.474 205.152 212.867 205.296 213.206 205.613C213.546 205.929 213.729 206.319 213.757 206.782C213.784 207.229 213.647 207.622 213.346 207.96C213.047 208.315 212.674 208.506 212.226 208.533ZM225.388 202.141L223.983 199.148C225.328 198.586 226.407 197.993 227.219 197.367C228.047 196.74 228.641 196.088 229.002 195.409C229.378 194.729 229.545 194.038 229.503 193.335C229.476 192.888 229.385 192.428 229.228 191.957C229.071 191.47 228.857 190.961 228.585 190.433C228.329 189.903 228.023 189.352 227.669 188.781L230.717 187.083C231.34 188.12 231.832 189.116 232.194 190.072C232.571 191.027 232.785 191.928 232.836 192.775C232.882 193.557 232.823 194.314 232.658 195.045C232.51 195.775 232.246 196.464 231.868 197.112C231.507 197.775 231.024 198.405 230.418 199.002C229.813 199.6 229.092 200.156 228.258 200.671C227.424 201.202 226.467 201.692 225.388 202.141ZM242.08 195.73C240.595 195.819 239.436 195.737 238.603 195.482C237.787 195.227 237.2 194.789 236.842 194.169C236.484 193.534 236.251 192.722 236.144 191.735L234.846 178.444L238.2 178.243L239.402 189.928C239.478 190.661 239.591 191.207 239.74 191.567C239.89 191.927 240.144 192.16 240.503 192.267C240.878 192.372 241.417 192.404 242.12 192.362C242.727 192.326 243.167 192.459 243.442 192.764C243.732 193.051 243.89 193.426 243.918 193.889C243.947 194.384 243.805 194.81 243.489 195.165C243.173 195.505 242.703 195.693 242.08 195.73ZM242.113 195.728L242.152 192.36C243.015 192.308 243.866 192.209 244.707 192.063C245.548 191.916 246.362 191.723 247.149 191.483C247.936 191.244 248.68 190.951 249.381 190.604C250.097 190.257 250.762 189.848 251.375 189.379C250.879 189.12 250.345 188.903 249.774 188.729C249.202 188.555 248.594 188.439 247.95 188.382C247.32 188.307 246.654 188.291 245.951 188.333C245.696 188.349 245.425 188.373 245.138 188.406C244.868 188.438 244.59 188.487 244.305 188.552C244.02 188.602 243.735 188.667 243.452 188.748L242.777 185.494C243.232 185.339 243.714 185.222 244.222 185.143C244.746 185.048 245.207 184.988 245.606 184.964C246.469 184.912 247.265 184.961 247.995 185.109C248.741 185.257 249.426 185.456 250.05 185.707C250.69 185.957 251.282 186.21 251.827 186.466C252.387 186.721 252.912 186.93 253.403 187.093C253.909 187.255 254.394 187.322 254.857 187.294L255.744 187.241L256.317 190.405C255.632 190.478 254.993 190.652 254.401 190.928C253.823 191.187 253.249 191.51 252.679 191.897C252.125 192.267 251.523 192.656 250.874 193.063C250.241 193.47 249.519 193.858 248.707 194.227C247.896 194.596 246.953 194.917 245.88 195.19C244.806 195.463 243.55 195.642 242.113 195.728ZM249.629 200.808C249.166 200.835 248.757 200.7 248.402 200.4C248.064 200.1 247.881 199.718 247.853 199.255C247.825 198.792 247.961 198.375 248.259 198.005C248.575 197.649 248.964 197.457 249.427 197.43C249.89 197.402 250.292 197.546 250.631 197.862C250.987 198.194 251.179 198.591 251.207 199.054C251.235 199.517 251.09 199.919 250.774 200.258C250.474 200.597 250.092 200.78 249.629 200.808Z" fill="black"/>
</g>
<defs>
<clipPath id="clip0_556_8227">
<rect width="280" height="335" fill="white"/>
</clipPath>
</defs>
</svg>
